# xmcd
#
# Track frame offsets:
#	150
#	14332
#	27242
#	43298
#	55073
#	70635
#	83316
#	97141
#	110265
#	123300
#	134410
#	146698
#	161670
#	178123
#	194103
#	211891
#	225021
#	241464
#	258199
#	272342
#
# Disc length: 3882
#
# Revision: 2
# Processed by: cddbd v1.5.1PL0 Copyright (c) Steve Scherf et al.
# Submitted via: EasyCDDAExtractor 7.0.5.1
# Normalized: r1:DSETVAR1
#
DISCID=100f2814
DTITLE=Various Artist - The Great Country Line Dance Album
DYEAR=1900
DGENRE=Country
TTITLE0=LaBounty and O'Brien - Rock My World (Little Country Girl)
TTITLE1=McDill and McGuire - If Bubba Can Dance (I Can Too)
TTITLE2=Howell and Seals - God Blessed Texas
TTITLE3=enner and McHugh - Holdin' Heaven
TTITLE4=Howard and Kostas - Blame It On Your Heart
TTITLE5=Kentucky Headhunters - Dumas Walker
TTITLE6=Dwight Yoakam - Guitars, Cadillacs
TTITLE7=LeMnire and Peddington - Super Love
TTITLE8=Barnes and Simmons - Indian Outlaw
TTITLE9=Willie Nelson - If The Good Die Young
TTITLE10=Black and Nichols - A Good Run Of Bad Luck
TTITLE11=Barnes and Felows - Before You Kill  Us All
TTITLE12=Brooks and Dunn - That Ain't No Way To Go
TTITLE13=Knox and Wellbarn - Why Haven't Heard From You
TTITLE14=Brown's and Brown's - Rope The Moon
TTITLE15=Kremp and Wayne - Lovebug
TTITLE16=Di Pierc'Shapiro - Walking Away a Winner
TTITLE17=Jones' - Your Love Amazes Me
TTITLE18=Hank Maddox - Addieted To a Dollar
TTITLE19=Johnson and Marsia - Don't Take The Girl
EXTD=
EXTT0=
EXTT1=
EXTT2=
EXTT3=
EXTT4=
EXTT5=
EXTT6=
EXTT7=
EXTT8=
EXTT9=
EXTT10=
EXTT11=
EXTT12=
EXTT13=
EXTT14=
EXTT15=
EXTT16=
EXTT17=
EXTT18=
EXTT19=
PLAYORDER=
